# xmcd CD database file
#
# Track frame offsets:
#	150
#	13592
#	26522
#	39889
#	53127
#	67182
#	80105
#	93842
#	107715
#	120930
#	133252
#	147357
#	161877
#	175132
#
# Disc length: 2503 seconds
#
# Revision: 0
# Processed by: cddbd v1.4PL0 Copyright (c) Steve Scherf et al.
# Submitted via: CDex 1.50beta9
#
DISCID=bb09c50e
DTITLE=Sarah Vaughan - Nature Boy [CD2)
DYEAR=1900
DGENRE=Jazz
TTITLE0=I've Got A Crush On You
TTITLE1=I'm Through With Love
TTITLE2=Everything I Have Is Yours
TTITLE3=Body And Soul
TTITLE4=Penthouse Serenade
TTITLE5=Don't Worry 'bout Me
TTITLE6=Time After Time
TTITLE7=Sempember Song
TTITLE8=I Cover The Waterfront
TTITLE9=I Don't Stand A Ghost Of A Chance
TTITLE10=Tenderly
TTITLE11=Don't Blame Me
TTITLE12=The Lord's Prayer
TTITLE13=Sometimes I Feel Like A Motherless Child
EXTD=
EXTT0=
EXTT1=
EXTT2=
EXTT3=
EXTT4=
EXTT5=
EXTT6=
EXTT7=
EXTT8=
EXTT9=
EXTT10=
EXTT11=
EXTT12=
EXTT13=
PLAYORDER=
